<svg width="22" height="22" viewBox="0 0 22 22" fill="none" xmlns="http://www.w3.org/2000/svg">
<path d="M17.8973 0.879828L3.75872 1.12309C2.14367 1.15088 0.85208 2.48769 0.879868 4.10275L1.12313 18.2413C1.15092 19.8563 2.48773 21.1479 4.10279 21.1201L10.0004 21.0187L9.87872 13.9494L7.53532 13.9897L7.47484 10.4746L9.81824 10.4343L9.77725 8.05183C9.7439 6.11349 11.2935 4.5096 13.2319 4.47624L16.786 4.41509L16.8465 7.9302L13.2924 7.99135L13.3333 10.3738L16.8875 10.3127L16.3621 13.8378L13.3938 13.8889L13.5155 20.9582L18.2413 20.8769C19.8564 20.8491 21.148 19.5123 21.1202 17.8972L20.8769 3.75868C20.8491 2.14362 19.5123 0.852039 17.8973 0.879828Z" fill="black"/>
</svg>
