<svg width="21" height="20" viewBox="0 0 21 20" fill="none" xmlns="http://www.w3.org/2000/svg">
<path d="M10.4341 0.499745C4.90919 0.538093 0.464569 4.93072 0.501907 10.31C0.531785 14.6146 3.42205 18.245 7.40339 19.5044C7.90401 19.5927 8.08525 19.2899 8.08346 19.0313C8.08185 18.8 8.06926 18.1871 8.05946 17.3752C5.28194 17.9818 4.68214 16.0917 4.68214 16.0917C4.21934 14.9706 3.55977 14.6745 3.55977 14.6745C2.64977 14.0769 3.62567 14.0826 3.62567 14.0826C4.63028 14.1433 5.16426 15.0756 5.16426 15.0756C6.06625 16.5588 7.51239 16.1183 8.08232 15.8657C8.16794 15.2348 8.42246 14.8043 8.70659 14.5586C6.48412 14.3304 4.1442 13.509 4.11829 9.77684C4.11091 8.71371 4.49237 7.84201 5.12929 7.15606C5.01509 6.91068 4.67072 5.92258 5.1989 4.57734C5.1989 4.57734 6.03457 4.31049 7.95576 5.55695C8.75424 5.33497 9.60348 5.22168 10.4534 5.21083C11.3034 5.20988 12.1542 5.31137 12.9556 5.52225C14.8469 4.24932 15.6861 4.50454 15.6861 4.50454C16.2329 5.84233 15.9023 6.83511 15.804 7.08197C16.4463 7.75904 16.8398 8.62536 16.8472 9.68849C16.8731 13.4305 14.5414 14.2703 12.3181 14.5253C12.6701 14.8153 12.9993 15.4103 13.0056 16.3231C13.0147 17.6266 13.0094 18.6741 13.0116 18.9905C13.0134 19.2458 13.1905 19.5494 13.7023 19.4483C17.6942 18.1418 20.5313 14.4691 20.5014 10.1712C20.4641 4.79191 15.9564 0.461414 10.4341 0.499745Z" fill="#212121"/>
</svg>
