<svg width="20" height="20" viewBox="0 0 20 20" fill="none" xmlns="http://www.w3.org/2000/svg">
<path d="M-6.01032e-07 6.25L-2.73196e-07 13.75C-1.22337e-07 17.2012 2.79875 20 6.25 20L13.75 20C17.2013 20 20 17.2012 20 13.75L20 6.25C20 2.79875 17.2012 -7.51891e-07 13.75 -6.01032e-07L6.25 -2.73196e-07C2.79875 -1.22337e-07 -7.51891e-07 2.79875 -6.01032e-07 6.25ZM13.75 1.875C16.1625 1.875 18.125 3.8375 18.125 6.25L18.125 13.75C18.125 16.1625 16.1625 18.125 13.75 18.125L6.25 18.125C3.8375 18.125 1.875 16.1625 1.875 13.75L1.875 6.25C1.875 3.8375 3.8375 1.875 6.25 1.875L13.75 1.875Z" fill="black"/>
<path d="M10.0325 5.00011C7.27136 4.98214 5.01809 7.20628 5.00012 9.96747C4.98216 12.7287 7.2063 14.9819 9.96749 14.9999C12.7287 15.0179 14.9819 12.7937 14.9999 10.0325C15.0179 7.27134 12.7937 5.01807 10.0325 5.00011ZM9.97969 13.1249C8.25722 13.1137 6.86388 11.7021 6.87509 9.97967C6.8863 8.25596 8.29789 6.86386 10.0203 6.87507C11.7428 6.88627 13.1362 8.29662 13.125 10.0203C13.1137 11.7428 11.7022 13.1361 9.97969 13.1249Z" fill="black"/>
<path d="M16.3325 14.6662C16.3325 14.2983 16.0342 14 15.6662 14C15.2983 14 15 14.2983 15 14.6662C15 15.0342 15.2983 15.3325 15.6662 15.3325C16.0342 15.3325 16.3325 15.0342 16.3325 14.6662Z" fill="black"/>
</svg>
